# xmcd
#
# Track frame offsets:
#	150
#	18762
#	36151
#	54087
#	70730
#	87458
#	100311
#	116385
#	133816
#	150623
#	166305
#	180456
#	191211
#	205526
#	221513
#	236853
#	254650
#	268973
#	284259
#	299843
#	316336
#	331126
#
# Disc length: 4594 seconds
#
# Revision: 1
# Processed by: cddbd v1.5.2PL0 Copyright (c) Steve Scherf et al.
# Submitted via: audiograbber 1.83.01
#
DISCID=4a11f016
DTITLE=vari - The Dome 67 CD1
DYEAR=2013
DGENRE=Sampler
TTITLE0=Avicii - Wake Me Up! (Radio Edit) (2013)
TTITLE1=Ellie Goulding - Burn (2013)
TTITLE2=John Newman - Love Me Again (2013)
TTITLE3=Naughty Boy feat.Sam Smith - La La La (2013)
TTITLE4=Robin Thicke feat.Pharrell - Blurred Lines (No Rap Version) (2013)
TTITLE5=Icona Pop - Girlfriend (2013)
TTITLE6=Bastille - Pompeii (2013)
TTITLE7=Stromae - Papaoutai (2013)
TTITLE8=Jessie J feat.Big Sean - Wild (2013)
TTITLE9=David Guetta feat.Ne Yo and Akon - Play Hard (New Edit) (2013)
TTITLE10=Martin Solveig and The Cataracs feat.Kyle - Hey Now (Single Mix) (2013)
TTITLE11=Follow Your Instinct fea.Alexandra Stan - Baby, It's Ok (Radio Edit) (
TTITLE11=2013)
TTITLE12=Carlprit - Here We Go (Allez Allez) (Michael Mind Project Radio Edit) 
TTITLE12=(2013)
TTITLE13=Kaptn - Ricky Ricardo (Album Version Explicit) (2013)
TTITLE14=Dizzee Rascal feat.Robbie Williams - Goin' Crazy (2013)
TTITLE15=Maxim - Rückspiegel (2013)
TTITLE16=Sam - Wir (2013)
TTITLE17=Fayzen - Zu Hause (Zeig mir den Weg) (2013)
TTITLE18=Pitbull feat.Danny Mercer - Outta Nowhere (2013)
TTITLE19=Alicia Keys - Tears Always Win (Single Mix) (2013)
TTITLE20=Ariana Grande - Baby I (2013)
TTITLE21=Bruno Mars - Treasure (2013)
EXTD=
EXTT0=
EXTT1=
EXTT2=
EXTT3=
EXTT4=
EXTT5=
EXTT6=
EXTT7=
EXTT8=
EXTT9=
EXTT10=
EXTT11=
EXTT12=
EXTT13=
EXTT14=
EXTT15=
EXTT16=
EXTT17=
EXTT18=
EXTT19=
EXTT20=
EXTT21=
PLAYORDER=
